# xmcd CD database file
#
# Track frame offsets:
#	150
#	34152
#	70485
#	90215
#	120911
#	132626
#
# Disc length: 2237 seconds
#
# Revision: 0
# Processed by: cddbd v1.5.2PL0 Copyright (c) Steve Scherf et al.
# Submitted via: CDex 1.51
#
DISCID=4a08bb06
DTITLE=Mombasa - African Rhythms and Blues
DYEAR=1975
DGENRE=Jazz
TTITLE0=Nairobi
TTITLE1=Massai
TTITLE2=Holz
TTITLE3=Kenia
TTITLE4=Makishi
TTITLE5=Shango
EXTD=YEAR: 1975
EXTT0=
EXTT1=
EXTT2=
EXTT3=
EXTT4=
EXTT5=
PLAYORDER=
